<svg height="512" width="512" xmlns="http://www.w3.org/2000/svg" data-name="Layer 1"><path fill="#909090" d="M108.344 424.526a6.05 6.05 0 00-1.085-.1 5.9 5.9 0 101.085.1zM145.9 44.5a202.782 202.782 0 0036.01 61.784l10.668-9.067a188.785 188.785 0 01-33.531-57.531l-5.971-16.3A7 7 0 00139.93 28.2zM227.841 162a127.592 127.592 0 00-17.135 14.211l16.443 19.334a40.113 40.113 0 01.339 51.555l179.93 212.145 19.068-16.172a30.426 30.426 0 0010.709-20.8 30.84 30.84 0 00-7.182-22.386zm10.097-54.918a5.884 5.884 0 00-5.922 9.119 5.884 5.884 0 105.922-9.119z"/><path fill="#909090" d="M275.589 124.7a26.141 26.141 0 00-16-41.569 25.973 25.973 0 00-4.725-.433 26.366 26.366 0 00-3.508.235C172.486 93.479 102.453 181.5 81.053 296.975 69 362.037 74.2 426.04 95.7 477.2a26.133 26.133 0 0048.182-20.255c-17.342-41.261-21.512-96.094-11.44-150.445 8.595-46.372 26.936-89.452 51.645-121.306 22.625-29.165 48.976-47.084 74.2-50.458a25.96 25.96 0 0017.302-10.036zM126.823 433.937a19.883 19.883 0 11-3.164-14.888 19.918 19.918 0 013.164 14.888zm129.594-317.445a19.885 19.885 0 11-15.929-23.176 19.918 19.918 0 0115.929 23.176z"/></svg>