<svg height="512" viewBox="0 0 64 64" width="512" xmlns="http://www.w3.org/2000/svg"><g fill="#bf9456"><path d="M39.946 6.274l-2.382-3.067c-.191-.316-.751-.194-.813.116-.31 1.511-.805 4.41-1.377 7.767-.794 4.653-1.69 9.902-2.34 12.865.417 1.422 1.758 3.882 3.291 5.861zM28 48c0-1.39-.705-2.436-2.601-3.861l-.399-.3V43c0-1.623.004-4.191 2.618-4.843-.749-.747-1.288-1.711-1.588-2.915l-.258-1.443a65.374 65.374 0 01-1.819 1.771A2.978 2.978 0 0023 37.76V43h-1c-3.309 0-6 2.916-6 6.5s2.691 6.5 6 6.5c4.093 0 7.178-1.455 8.653-2.322a.713.713 0 00-.003-1.223C28.941 51.418 28 49.835 28 48zm-6 5c-1.657 0-3-1.567-3-3.5s1.343-3.5 3-3.5 3 1.567 3 3.5-1.343 3.5-3 3.5z"/><path d="M47.49 59.875c-3.564-.358-5.945-1.038-7.076-2.02a1.496 1.496 0 01-.408-1.703 1.553 1.553 0 011.514-.991c1.744.09 3.082-.297 3.978-1.148C46.739 52.833 47 50.908 47 49.5c0-3.584-2.691-6.5-6-6.5h-1v-5.24c0-.835-.339-1.613-.955-2.191a62.473 62.473 0 01-3.191-3.202c-2.063-2.215-4.274-5.938-4.824-8.124-.082-.325-.264-1.125-.507-2.229-.418-1.858-1.027-4.474-1.663-7.204-1.051-4.512-2.137-9.178-2.61-11.48-.074-.372-.655-.389-.814-.124l-.067.098-2.308 2.961 4.924 28.559c.462 1.845 1.558 2.781 3.65 3.064C32.429 38 33.228 38 34 38c4 0 4 3.13 4 5v.839l-.399.3C35.972 45.363 35 47.367 35 49.5 35 57.023 39.149 61 47 61h.44a.56.56 0 00.56-.56.565.565 0 00-.51-.565zM32 36a2 2 0 11-.001-3.999A2 2 0 0132 36zm6 13.5c0-1.933 1.343-3.5 3-3.5s3 1.567 3 3.5-1.343 3.5-3 3.5-3-1.567-3-3.5z"/></g></svg>