<svg height="512" viewBox="0 0 64 64" width="512" xmlns="http://www.w3.org/2000/svg"><g fill="#bf9456"><path d="M50 28a2 2 0 00-2 2h-3.128c.077.657.128 1.322.128 2s-.051 1.343-.128 2H48a2 2 0 104 0v-4a2 2 0 00-2-2zM40 15c0-1.103-.897-2-2-2v5.283a17.168 17.168 0 012 1.688zM20 9h4v4h-4zm18.949 22a10.954 10.954 0 00-2.501-6.034l-1.377 1.377-1.414-1.414 1.377-1.377A10.943 10.943 0 0029 21.051V23h-2v-1.949a10.954 10.954 0 00-6.034 2.501l1.377 1.377-1.414 1.414-1.377-1.377A10.943 10.943 0 0017.051 31H19v2h-1.949a10.947 10.947 0 002.502 6.034l1.377-1.377 1.414 1.414-1.377 1.377a10.943 10.943 0 006.034 2.501V41h2v1.949a10.954 10.954 0 006.034-2.501l-1.377-1.377 1.414-1.414 1.377 1.377A10.944 10.944 0 0038.951 33H37v-2zm-13.242 4.707l-1.414-1.414L26.586 32l-4.293-4.293 1.414-1.414L29.414 32zM18 13c-1.103 0-2 .897-2 2v4.971a17.07 17.07 0 012-1.688zm6 2h-4v2.008a16.87 16.87 0 014-1.513zm0-12h-3c-.551 0-1 .449-1 1v3h4zm12 1c0-.551-.449-1-1-1h-3v4h4zm-6 11.128V3h-4v12.128c.657-.077 1.322-.128 2-.128s1.343.051 2 .128zM32 9h4v4h-4zm4 6h-4v.495a16.87 16.87 0 014 1.513zM20 51h4v4h-4zm12 10h3c.551 0 1-.448 1-1v-3h-4zM20 49h4v-.495a16.87 16.87 0 01-4-1.513zm6-.128V61h4V48.872c-.657.077-1.322.128-2 .128s-1.343-.051-2-.128zM38 51c1.103 0 2-.897 2-2v-4.971a17.07 17.07 0 01-2 1.688zm-6-2h4v-2.008a16.87 16.87 0 01-4 1.513zm0 2h4v4h-4z"/><path d="M28 17c-8.271 0-15 6.729-15 15s6.729 15 15 15 15-6.729 15-15-6.729-15-15-15zm0 28c-7.168 0-13-5.832-13-13s5.832-13 13-13 13 5.832 13 13-5.832 13-13 13zm-8 15c0 .552.449 1 1 1h3v-4h-4zm-4-11c0 1.103.897 2 2 2v-5.283a17.168 17.168 0 01-2-1.688z"/></g></svg>