<svg id="Layer_5" enable-background="new 0 0 64 64" height="512" viewBox="0 0 64 64" width="512" xmlns="http://www.w3.org/2000/svg"><g fill="#bf9456"><path d="m50 28c-1.105 0-2 .895-2 2h-3.128c.077.657.128 1.322.128 2s-.051 1.343-.128 2h3.128c0 1.105.895 2 2 2s2-.895 2-2v-4c0-1.105-.895-2-2-2z"/><path d="m40 15c0-1.103-.897-2-2-2v5.283c.706.516 1.382 1.072 2 1.688z"/><path d="m20 9h4v4h-4z"/><path d="m38.949 31c-.207-2.283-1.111-4.366-2.501-6.034l-1.377 1.377-1.414-1.414 1.377-1.377c-1.667-1.391-3.751-2.294-6.034-2.501v1.949h-2v-1.949c-2.283.207-4.366 1.111-6.034 2.501l1.377 1.377-1.414 1.414-1.377-1.377c-1.391 1.667-2.294 3.751-2.501 6.034h1.949v2h-1.949c.207 2.283 1.111 4.366 2.502 6.034l1.377-1.377 1.414 1.414-1.377 1.377c1.667 1.391 3.751 2.294 6.034 2.501v-1.949h2v1.949c2.283-.207 4.366-1.111 6.034-2.501l-1.377-1.377 1.414-1.414 1.377 1.377c1.391-1.667 2.295-3.751 2.502-6.034h-1.951v-2zm-13.242 4.707-1.414-1.414 2.293-2.293-4.293-4.293 1.414-1.414 5.707 5.707z"/><path d="m18 13c-1.103 0-2 .897-2 2v4.971c.618-.617 1.294-1.172 2-1.688z"/><path d="m24 15h-4v2.008c1.247-.668 2.592-1.172 4-1.513z"/><path d="m24 3h-3c-.551 0-1 .449-1 1v3h4z"/><path d="m36 4c0-.551-.449-1-1-1h-3v4h4z"/><path d="m30 15.128v-12.128h-4v12.128c.657-.077 1.322-.128 2-.128s1.343.051 2 .128z"/><path d="m32 9h4v4h-4z"/><path d="m36 15h-4v.495c1.408.341 2.753.845 4 1.513z"/><path d="m20 51h4v4h-4z"/><path d="m32 61h3c.551 0 1-.448 1-1v-3h-4z"/><path d="m20 49h4v-.495c-1.408-.341-2.753-.845-4-1.513z"/><path d="m26 48.872v12.128h4v-12.128c-.657.077-1.322.128-2 .128s-1.343-.051-2-.128z"/><path d="m38 51c1.103 0 2-.897 2-2v-4.971c-.618.617-1.294 1.172-2 1.688z"/><path d="m32 49h4v-2.008c-1.247.668-2.592 1.172-4 1.513z"/><path d="m32 51h4v4h-4z"/><path d="m28 17c-8.271 0-15 6.729-15 15s6.729 15 15 15 15-6.729 15-15-6.729-15-15-15zm0 28c-7.168 0-13-5.832-13-13s5.832-13 13-13 13 5.832 13 13-5.832 13-13 13z"/><path d="m20 60c0 .552.449 1 1 1h3v-4h-4z"/><path d="m16 49c0 1.103.897 2 2 2v-5.283c-.706-.516-1.382-1.072-2-1.688z"/></g></svg>