<svg height="512" width="512" xmlns="http://www.w3.org/2000/svg"><path d="M408.043 5.851H59.981C26.854 5.851 0 32.705 0 65.832v279.509c0 33.127 26.854 59.981 59.981 59.981a8.58 8.58 0 018.579 8.579v50.142h12.362l47.71-45.758a32.84 32.84 0 0118.512-8.867l31.592-4.096h27.676-.002 201.631c33.127 0 59.981-26.854 59.981-59.981V65.832c0-33.126-26.853-59.98-59.979-59.981z" fill="#95d6a4"/><path d="M452.019 5.851h-56.34c33.127 0 59.981 26.854 59.981 59.981v279.509c0 33.127-26.854 59.981-59.981 59.981h56.34c33.127 0 59.981-26.855 59.981-59.981V65.832c0-33.127-26.854-59.981-59.981-59.981zM124.068 410.807L68.56 464.043v33.204c0 7.826 9.386 11.829 15.034 6.412l96.813-92.852a19.713 19.713 0 0113.642-5.485h-56.34a19.704 19.704 0 00-13.641 5.485z" fill="#77ce8e"/><path d="M434.876 121.336H163.352a7.726 7.726 0 110-15.452h271.524a7.726 7.726 0 110 15.452zm0 81.963H77.124a7.726 7.726 0 110-15.452h357.752a7.726 7.726 0 110 15.452zm0 81.964H77.124a7.726 7.726 0 110-15.452h357.752a7.726 7.726 0 110 15.452z" fill="#fff"/></svg>