<svg xmlns="http://www.w3.org/2000/svg" width="30.5" height="30.5"><path d="M22.186 2.426s.041-.475.908-.729c-.849-.396-1.561.533-1.561.533l-1.263-.317s-.418-.971.652-1.244c-.75-.453-1.52.83-1.52.83S17.922-.495 17.466.116c.869.376.553 1.185.553 1.185S7.381-1.938 4.795 7.617c.691-1.104.869-.869.869-.869s-.915 5.942.375 9.772l.513.553s-.531-2.246-.056-4.19c.332-1.357 1.673-2.402 1.833-3.14.263-1.615-.317-3.184 1.526-4.369 1.842-1.184 4.692.346 5.764.29 1.072-.057 3.516-1.694 5.343-.711 1.957 1.053 1.288 4.196 1.343 4.659.105.578.908 1.157 1.441 2.104.533.948-.198 5.831-.198 5.831s.257.118.494-.197 1.244-8.766 1.146-9.062c-.1-.296.078-.711.494-.217.353-3.119-3.496-5.645-3.496-5.645zm.296 17.51c-.217.947-1.541 3.89-1.994 4.205-.455.314-3.533-1.5-4.541-1.54-1.006-.039-3.79 1.025-4.401.77s-4.836-6.573-5.093-5.822c-.257.75 1.449 3.292 1.5 3.85.051.558.018 1.271.573 1.974s1.638 2.054 2.329 2.941c0-.71.276-.671.276-.671s2.211 2.961 2.803 2.547c-.691-.436-.415-.85-.415-.85s1.639 3.039 2.171 3.158c.533.118 2.408-3.258 2.408-3.258s.475.73 0 1.165c.672.06 3.316-2.566 4.264-4.579.947-2.014 1.383-5.725 1.383-5.725s-1.046.886-1.263 1.835z" fill="#fff"/></svg>